<?xml version="1.0" standalone="no"?>
<!DOCTYPE svg PUBLIC "-//W3C//DTD SVG 20010904//EN"
 "http://www.w3.org/TR/2001/REC-SVG-20010904/DTD/svg10.dtd">
<svg version="1.0" xmlns="http://www.w3.org/2000/svg"
 width="150px" height="150px" viewBox="0 0 350.000000 500.000000"
 preserveAspectRatio="xMidYMid meet">
<metadata>
Created by potrace 1.10, written by Tiroski
</metadata>

<g transform="translate(0.000000,195.000000) scale(0.100000,-0.100000)"
fill="#000000" stroke="none">
<path d="M1362 1250 c3 -28 13 -59 22 -69 14 -15 15 -23 5 -44 -9 -19 -21 -27
-56 -32 -68 -10 -93 -40 -93 -112 0 -40 6 -68 20 -91 11 -18 20 -44 20 -57 0
-14 5 -25 10 -25 17 0 11 62 -7 82 -11 12 -19 41 -21 82 -4 57 -2 65 19 80 26
18 69 22 69 6 0 -5 -9 -10 -20 -10 -11 0 -20 -4 -20 -10 0 -5 9 -10 20 -10 11
0 20 -4 20 -10 0 -5 -9 -10 -20 -10 -11 0 -20 -4 -20 -10 0 -5 9 -10 20 -10
11 0 20 -4 20 -10 0 -5 -9 -10 -20 -10 -11 0 -20 -4 -20 -10 0 -5 9 -10 20
-10 11 0 20 -4 20 -10 0 -5 -9 -10 -20 -10 -11 0 -20 -6 -20 -13 0 -20 22 -37
47 -37 20 0 23 -5 23 -35 0 -19 5 -35 10 -35 6 0 10 16 10 36 l0 36 40 -36
c22 -20 45 -36 50 -36 21 0 9 18 -30 45 -40 27 -90 100 -90 129 0 26 14 18 30
-17 11 -23 23 -33 43 -35 33 -4 67 22 67 50 0 10 5 18 10 18 6 0 10 -24 10
-53 0 -44 6 -62 30 -95 29 -40 55 -57 44 -28 -3 8 6 18 24 25 73 30 102 95
102 226 0 109 -12 148 -59 188 -48 40 -58 21 -12 -21 22 -20 42 -49 45 -64 l6
-28 -135 0 c-75 0 -145 4 -155 10 -18 10 -40 59 -40 91 0 17 9 19 90 19 53 0
90 4 90 10 0 6 -40 10 -101 10 l-102 0 5 -50z m136 -127 c2 -9 -11 -13 -47
-13 -48 0 -61 7 -44 24 12 11 86 2 91 -11z m210 -72 c-5 -98 -18 -129 -71
-161 -38 -24 -67 -26 -67 -5 0 8 5 15 10 15 15 0 13 183 -2 198 -7 7 -22 12
-34 12 -12 0 -24 7 -28 15 -4 13 10 15 96 15 l100 0 -4 -89z m-140 -53 c3 -98
-15 -125 -20 -30 -3 50 -6 57 -25 60 -12 2 -27 10 -33 18 -16 18 -51 18 -76
-1 -29 -22 -41 -18 -46 15 l-5 31 101 -3 101 -3 3 -87z m-88 27 c26 -32 -13
-81 -47 -59 -35 22 -23 74 17 74 10 0 23 -7 30 -15z m-96 -100 c4 -11 -2 -15
-24 -15 -46 0 -38 20 11 29 4 0 9 -6 13 -14z"/>
<path d="M1610 1050 c0 -5 14 -10 30 -10 17 0 30 5 30 10 0 6 -13 10 -30 10
-16 0 -30 -4 -30 -10z"/>
<path d="M1580 1290 c0 -5 5 -10 10 -10 6 0 10 5 10 10 0 6 -4 10 -10 10 -5 0
-10 -4 -10 -10z"/>
<path d="M1435 740 c-95 -13 -149 -77 -142 -166 7 -96 71 -148 184 -147 72 1
116 22 150 73 44 64 24 173 -40 214 -31 21 -103 33 -152 26z m127 -89 c41 -46
39 -92 -7 -138 -34 -34 -38 -35 -92 -31 -46 4 -61 10 -80 32 -33 39 -38 69
-16 113 23 49 55 65 117 60 40 -4 55 -10 78 -36z"/>
<path d="M1827 739 c-83 -13 -118 -52 -103 -114 10 -41 44 -55 150 -62 97 -6
122 -16 110 -46 -15 -40 -137 -47 -205 -12 -28 15 -33 15 -47 2 -39 -40 33
-79 148 -79 117 -1 163 30 158 103 -5 63 -33 80 -151 88 -102 6 -117 12 -101
38 23 37 137 41 188 7 32 -20 58 -12 54 18 -6 44 -108 73 -201 57z"/>
<path d="M2142 741 c-17 -10 -19 -298 -2 -315 20 -20 45 8 48 55 3 33 10 49
30 65 l26 21 83 -73 c45 -41 86 -74 91 -74 12 0 32 22 32 36 0 7 -33 40 -72
75 -40 34 -74 65 -75 68 -1 3 29 27 67 54 70 47 88 78 54 91 -19 7 -13 10
-137 -76 -54 -37 -99 -68 -100 -68 -2 0 -1 27 1 60 5 74 -12 103 -46 81z m138
-148 c0 -26 -1 -26 -17 -10 -16 16 -16 19 -3 27 20 13 20 13 20 -17z m-77 -16
c4 3 7 4 7 1 0 -3 -11 -13 -25 -22 -25 -16 -25 -16 -25 15 0 30 1 31 18 16 10
-10 22 -14 25 -10z"/>
<path d="M240 725 c-10 -12 -10 -18 1 -31 9 -11 28 -15 72 -13 l59 3 1 -124
c2 -104 5 -124 19 -134 32 -20 40 6 41 134 l2 123 65 1 c62 1 65 2 65 26 l0
25 -156 3 c-130 2 -158 0 -169 -13z m180 -24 c0 -18 -18 -21 -30 -6 -10 13 -9
15 9 15 11 0 21 -4 21 -9z"/>
<path d="M632 727 c-19 -22 9 -51 41 -45 l27 5 0 -103 0 -103 -29 5 c-22 5
-32 2 -39 -13 -20 -37 -2 -44 104 -41 94 3 99 4 102 26 3 22 -1 25 -48 26 -25
1 -25 1 -25 100 l0 100 35 0 c31 1 35 4 35 26 0 25 -1 25 -96 28 -72 2 -99 -1
-107 -11z m118 -32 c-10 -12 -16 -13 -26 -4 -20 16 -18 19 12 19 22 0 25 -2
14 -15z m-4 -233 c-22 -5 -30 3 -21 18 5 8 11 7 22 -2 15 -12 14 -13 -1 -16z"/>
<path d="M930 721 c-5 -11 -10 -78 -10 -149 0 -102 3 -132 15 -142 29 -24 45
-4 45 55 l0 55 55 0 c54 0 55 0 95 -54 45 -59 65 -72 86 -55 20 16 18 21 -21
70 l-34 44 24 20 c28 23 47 67 39 92 -23 73 -45 83 -179 83 -93 0 -105 -2
-115 -19z m225 -81 l0 -35 -87 -3 -88 -3 0 41 0 41 88 -3 87 -3 0 -35z m-178
-82 c-17 -10 -27 0 -27 29 l0 25 19 -23 c13 -16 16 -26 8 -31z m163 -10 c0
-16 -3 -19 -11 -11 -6 6 -8 16 -5 22 11 17 16 13 16 -11z"/>
<path d="M2524 725 c-11 -29 4 -48 36 -43 l30 5 0 -103 0 -103 -29 5 c-22 5
-32 2 -39 -13 -20 -37 -2 -44 104 -41 87 3 99 5 102 22 5 25 -16 37 -50 30
l-28 -6 0 101 0 100 38 3 c32 3 37 6 37 28 0 25 -1 25 -98 28 -80 2 -98 0
-103 -13z m116 -24 c0 -18 -18 -21 -30 -6 -10 13 -9 15 9 15 11 0 21 -4 21 -9z
m0 -232 c0 -5 -10 -9 -21 -9 -18 0 -19 2 -9 15 12 15 30 12 30 -6z"/>
<path d="M951 300 c0 -64 2 -80 14 -80 10 0 15 10 15 30 0 23 4 30 20 30 44 0
51 82 8 94 -55 14 -56 12 -57 -74z m59 30 c0 -11 -7 -20 -15 -20 -8 0 -15 9
-15 20 0 11 7 20 15 20 8 0 15 -9 15 -20z"/>
<path d="M1060 301 c0 -66 3 -81 15 -81 12 0 15 10 13 41 -2 27 2 43 10 46 8
3 12 -9 12 -41 0 -35 4 -46 16 -46 12 0 14 10 12 53 -3 48 -5 52 -30 55 -21 3
-27 8 -25 24 1 11 -4 23 -10 25 -10 4 -13 -16 -13 -76z"/>
<path d="M1825 300 c0 -55 4 -80 12 -80 7 0 13 18 15 42 4 59 28 63 28 4 0
-34 4 -46 15 -46 11 0 15 11 15 36 0 45 -15 74 -40 74 -15 0 -20 7 -20 25 0
14 -6 25 -13 25 -9 0 -12 -22 -12 -80z"/>
<path d="M1270 346 c0 -8 -6 -17 -12 -20 -10 -5 -10 -7 0 -12 6 -3 12 -18 12
-34 0 -16 3 -35 6 -44 7 -17 54 -22 54 -6 0 6 -7 10 -15 10 -19 0 -21 66 -2
74 10 5 10 7 0 12 -7 3 -13 12 -13 20 0 8 -7 14 -15 14 -8 0 -15 -6 -15 -14z"/>
<path d="M1580 330 c-7 -4 -19 -6 -27 -3 -11 4 -13 -6 -11 -51 4 -67 22 -79
26 -17 3 33 8 44 23 48 20 5 25 18 11 27 -4 2 -14 1 -22 -4z"/>
<path d="M1166 314 c-9 -22 -7 -67 3 -82 5 -8 21 -12 37 -10 24 2 30 8 32 32
6 52 -5 76 -37 76 -17 0 -31 -6 -35 -16z m47 -31 c6 -32 -9 -56 -22 -35 -4 7
-6 23 -5 35 3 28 2 27 13 27 5 0 11 -12 14 -27z"/>
<path d="M1346 315 c-11 -29 -7 -72 8 -85 8 -6 25 -10 38 -8 21 3 23 8 23 53
0 49 -1 50 -31 53 -22 2 -33 -2 -38 -13z m49 -40 c0 -16 -6 -30 -12 -32 -9 -3
-13 7 -13 32 0 25 4 35 13 33 6 -3 12 -17 12 -33z"/>
<path d="M1444 316 c-3 -8 -4 -31 -2 -52 3 -34 6 -39 31 -42 28 -3 35 -16 17
-27 -6 -4 -18 -1 -26 6 -8 6 -17 9 -21 6 -9 -10 17 -37 36 -37 31 0 41 22 41
92 l0 68 -35 0 c-21 0 -38 -6 -41 -14z m46 -41 c0 -19 -4 -35 -10 -35 -5 0
-10 16 -10 35 0 19 5 35 10 35 6 0 10 -16 10 -35z"/>
<path d="M1624 315 c-9 -22 3 -30 21 -15 12 10 19 10 27 2 8 -8 4 -14 -16 -21
-54 -21 -38 -74 19 -63 24 4 26 8 23 56 -3 50 -4 51 -36 54 -22 2 -34 -2 -38
-13z m56 -54 c0 -12 -20 -25 -27 -18 -7 7 6 27 18 27 5 0 9 -4 9 -9z"/>
<path d="M1725 250 c0 -57 4 -80 13 -80 6 0 12 11 12 25 0 20 5 25 26 25 24 0
25 2 22 53 -3 52 -3 52 -38 55 l-35 3 0 -81z m55 19 c0 -19 -5 -29 -15 -29
-15 0 -22 50 -9 63 12 12 24 -4 24 -34z"/>
<path d="M1925 313 c3 -10 11 -37 18 -60 10 -38 9 -44 -7 -56 -12 -9 -15 -16
-8 -21 23 -14 41 9 61 74 25 81 25 80 6 80 -9 0 -15 -9 -15 -24 0 -36 -17 -40
-24 -6 -3 19 -12 30 -22 30 -11 0 -14 -5 -9 -17z"/>
</g>
</svg>
